<?xml version="1.0" encoding="iso-8859-1"?>
<!-- Uploaded to: SVG Repo, www.svgrepo.com, Generator: SVG Repo Mixer Tools -->
<svg height="800px" width="800px" version="1.1" id="Layer_1" xmlns="http://www.w3.org/2000/svg" xmlns:xlink="http://www.w3.org/1999/xlink"
	 viewBox="0 0 512 512" xml:space="preserve">
<style>
  g { fill: #000000; }
  @media (prefers-color-scheme: dark) {
    g { fill: #d8d8d8; }
  }
</style>
<g>
	<g>
		<path d="M503.82,8.187c-16.709-16.71-44.478-4.608-66.801,7.803c-22.056,12.261-50.384,31.976-84.198,58.599
			c-66.025,51.983-134.248,115.225-172.61,153.587l-0.694,0.693l-0.607,0.77c-6.593,8.354-37.506,48.165-48.018,73.127L0,382.541
			l129.453,129.452l79.789-130.878c24.961-10.514,64.766-41.437,73.118-48.032l0.767-0.606l0.692-0.692
			c38.367-38.366,101.614-106.592,153.593-172.604c26.625-33.813,46.341-62.14,58.604-84.194
			C508.427,52.664,520.532,24.897,503.82,8.187z M123.038,458.331l-9.708-9.708l19.555-19.555l-23.624-23.624L89.707,425
			l-2.713-2.713l19.556-19.556l-23.624-23.624L63.37,398.663l-9.706-9.706l88.354-53.851l34.877,34.877L123.038,458.331z
			 M201.893,347.733l-37.618-37.618c6.157-11.85,18.18-29.515,29.454-44.798l52.953,52.954
			C231.407,329.549,213.746,341.575,201.893,347.733z M402.634,149.232c-44.458,55.344-95.609,111.097-130.703,147.041
			l-56.209-56.209c35.941-35.089,91.692-86.236,147.047-130.698c73.248-58.836,103.913-72.152,114.961-75.089
			C474.792,45.325,461.474,75.987,402.634,149.232z"/>
	</g>
</g>
</svg>
